<svg xmlns="http://www.w3.org/2000/svg" viewBox="0 0 220 160" width="220" height="160">
  <g fill="none" stroke="#000" stroke-width="5" stroke-linecap="round" stroke-linejoin="round">
    <path d="M32 118
             C22 103, 22 80, 29 60
             C36 41, 49 27, 69 21
             C89 15, 112 18, 128 27
             C142 17, 163 14, 183 20
             C196 24, 201 34, 199 43
             C196 56, 184 66, 168 74
             C155 80, 143 88, 134 99
             C124 112, 112 124, 95 128
             C75 133, 54 131, 40 126
             C36 125, 34 122, 32 118 Z"/>
    <path d="M97 24 C102 29, 103 35, 101 41"/>
    <path d="M111 42 C111 57, 109 75, 110 90
             C110 103, 109 114, 103 122"/>
    <path d="M112 45 C118 44, 124 45, 129 48
             C131 60, 131 75, 129 88
             C127 100, 122 109, 114 116"/>
  </g>
</svg>
